<?xml version="1.0" encoding="UTF-8" standalone="no"?>
<!-- Generator: Adobe Illustrator 18.1.1, SVG Export Plug-In . SVG Version: 6.00 Build 0)  -->

<svg
   xmlns:dc="http://purl.org/dc/elements/1.1/"
   xmlns:cc="http://creativecommons.org/ns#"
   xmlns:rdf="http://www.w3.org/1999/02/22-rdf-syntax-ns#"
   xmlns:svg="http://www.w3.org/2000/svg"
   xmlns="http://www.w3.org/2000/svg"
   xmlns:sodipodi="http://sodipodi.sourceforge.net/DTD/sodipodi-0.dtd"
   xmlns:inkscape="http://www.inkscape.org/namespaces/inkscape"
   version="1.1"
   id="Capa_1"
   x="0px"
   y="0px"
   viewBox="0 0 438 438"
   style="enable-background:new 0 0 438 438;"
   xml:space="preserve"
   sodipodi:docname="fscircularback.svg"
   inkscape:version="0.92.2 (5c3e80d, 2017-08-06)"><metadata
     id="metadata43"><rdf:RDF><cc:Work
         rdf:about=""><dc:format>image/svg+xml</dc:format><dc:type
           rdf:resource="http://purl.org/dc/dcmitype/StillImage" /><dc:title></dc:title></cc:Work></rdf:RDF></metadata><defs
     id="defs41" /><sodipodi:namedview
     pagecolor="#ffffff"
     bordercolor="#666666"
     borderopacity="1"
     objecttolerance="10"
     gridtolerance="10"
     guidetolerance="10"
     inkscape:pageopacity="0"
     inkscape:pageshadow="2"
     inkscape:window-width="640"
     inkscape:window-height="480"
     id="namedview39"
     showgrid="false"
     showguides="false"
     inkscape:zoom="3.0479854"
     inkscape:cx="411.63499"
     inkscape:cy="219"
     inkscape:window-x="262"
     inkscape:window-y="385"
     inkscape:window-maximized="0"
     inkscape:current-layer="Capa_1" /><g
     id="g6"
     transform="matrix(-0.9932365,0,0,1,436.89351,0)"><g
       id="g4"><path
         style="fill:#090509"
         d="m 413,103.25 c 14,0 25,11 25,25 v 264 c 0,14 -11,24 -25,24 H 25 c -14,0 -25,-10 -25,-24 v -264 c 0,-14 11,-25 25,-25 h 154 l -40,-40 c -10,-10 -10,-24 0,-34 10,-10 25,-10 35,0 l 81,81 c 5,5 7,12 7,18 0,7 -2,12 -7,17 l -81,82 c -5,5 -12,7 -18,7 -6,0 -12,-2 -17,-7 -10,-10 -10,-25 0,-35 l 40,-40 H 49 v 215 h 340 v -215 h -59 c -14,0 -24,-10 -24,-24 0,-14 10,-25 24,-25 z"
         id="path2"
         inkscape:connector-curvature="0" /></g></g><g
     id="g8"
     transform="matrix(-0.99152545,0,0,1,436.14407,0)" /><g
     id="g10"
     transform="matrix(-0.99152545,0,0,1,436.14407,0)" /><g
     id="g12"
     transform="matrix(-0.99152545,0,0,1,436.14407,0)" /><g
     id="g14"
     transform="matrix(-0.99152545,0,0,1,436.14407,0)" /><g
     id="g16"
     transform="matrix(-0.99152545,0,0,1,436.14407,0)" /><g
     id="g18"
     transform="matrix(-0.99152545,0,0,1,436.14407,0)" /><g
     id="g20"
     transform="matrix(-0.99152545,0,0,1,436.14407,0)" /><g
     id="g22"
     transform="matrix(-0.99152545,0,0,1,436.14407,0)" /><g
     id="g24"
     transform="matrix(-0.99152545,0,0,1,436.14407,0)" /><g
     id="g26"
     transform="matrix(-0.99152545,0,0,1,436.14407,0)" /><g
     id="g28"
     transform="matrix(-0.99152545,0,0,1,436.14407,0)" /><g
     id="g30"
     transform="matrix(-0.99152545,0,0,1,436.14407,0)" /><g
     id="g32"
     transform="matrix(-0.99152545,0,0,1,436.14407,0)" /><g
     id="g34"
     transform="matrix(-0.99152545,0,0,1,436.14407,0)" /><g
     id="g36"
     transform="matrix(-0.99152545,0,0,1,436.14407,0)" /></svg>