<?xml version="1.0" encoding="iso-8859-1"?>
<!-- Generator: Adobe Illustrator 18.1.1, SVG Export Plug-In . SVG Version: 6.00 Build 0)  -->
<svg version="1.1" id="Capa_1" xmlns="http://www.w3.org/2000/svg" xmlns:xlink="http://www.w3.org/1999/xlink" x="0px" y="0px"
	 viewBox="0 0 438 438" style="enable-background:new 0 0 438 438;" xml:space="preserve">
<g>
	<g>
		<path style="fill:#090509;" d="M413,103.25c14,0,25,11,25,25v264c0,14-11,24-25,24H25c-14,0-25-10-25-24v-264c0-14,11-25,25-25
			h154l-40-40c-10-10-10-24,0-34s25-10,35,0l81,81c5,5,7,12,7,18c0,7-2,12-7,17l-81,82c-5,5-12,7-18,7s-12-2-17-7c-10-10-10-25,0-35
			l40-40H49v215h340v-215h-59c-14,0-24-10-24-24s10-25,24-25H413z"/>
	</g>
</g>
<g>
</g>
<g>
</g>
<g>
</g>
<g>
</g>
<g>
</g>
<g>
</g>
<g>
</g>
<g>
</g>
<g>
</g>
<g>
</g>
<g>
</g>
<g>
</g>
<g>
</g>
<g>
</g>
<g>
</g>
</svg>
