<?xml version="1.0" encoding="iso-8859-1"?>
<!-- Generator: Adobe Illustrator 18.1.1, SVG Export Plug-In . SVG Version: 6.00 Build 0)  -->
<svg version="1.1" id="Capa_1" xmlns="http://www.w3.org/2000/svg" xmlns:xlink="http://www.w3.org/1999/xlink" x="0px" y="0px"
	 viewBox="0 0 470 470" style="enable-background:new 0 0 470 470;" xml:space="preserve">
<g>
	<g>
		<path style="fill:#090509;" d="M446,119.25H83l40-40c10-10,10-24,0-34s-24-10-34,0l-82,81c-5,5-7,11-7,18c0,6,2,12,7,17l82,82
			c5,5,11,7,17,7s12-2,17-7c10-10,10-25,0-35l-40-40h338v215H57c-14,0-24,11-24,25s10,24,24,24h389c14,0,24-10,24-24v-264
			C470,130.25,460,119.25,446,119.25z"/>
	</g>
</g>
<g>
</g>
<g>
</g>
<g>
</g>
<g>
</g>
<g>
</g>
<g>
</g>
<g>
</g>
<g>
</g>
<g>
</g>
<g>
</g>
<g>
</g>
<g>
</g>
<g>
</g>
<g>
</g>
<g>
</g>
</svg>
