<?xml version="1.0" encoding="iso-8859-1"?>
<!-- Generator: Adobe Illustrator 18.1.1, SVG Export Plug-In . SVG Version: 6.00 Build 0)  -->
<svg version="1.1" id="Capa_1" xmlns="http://www.w3.org/2000/svg" xmlns:xlink="http://www.w3.org/1999/xlink" x="0px" y="0px"
	 viewBox="0 0 412 412" style="enable-background:new 0 0 412 412;" xml:space="preserve">
<g>
	<g>
		<path style="fill:#090509;" d="M405,189.25l-133-133c-5-5-12-8-18-8s-12,3-17,8c-10,10-10,24,0,34l91,91H24c-14,0-24,11-24,25
			s10,24,24,24h304l-91,92c-10,10-10,24,0,34s25,10,35,0l133-133c5-5,7-10,7-17S410,194.25,405,189.25z"/>
	</g>
</g>
<g>
</g>
<g>
</g>
<g>
</g>
<g>
</g>
<g>
</g>
<g>
</g>
<g>
</g>
<g>
</g>
<g>
</g>
<g>
</g>
<g>
</g>
<g>
</g>
<g>
</g>
<g>
</g>
<g>
</g>
</svg>
