<?xml version="1.0" encoding="UTF-8" standalone="no"?>
<!-- Generator: Adobe Illustrator 13.0.0, SVG Export Plug-In . SVG Version: 6.00 Build 14948)  -->

<svg
   xmlns:dc="http://purl.org/dc/elements/1.1/"
   xmlns:cc="http://creativecommons.org/ns#"
   xmlns:rdf="http://www.w3.org/1999/02/22-rdf-syntax-ns#"
   xmlns:svg="http://www.w3.org/2000/svg"
   xmlns="http://www.w3.org/2000/svg"
   xmlns:sodipodi="http://sodipodi.sourceforge.net/DTD/sodipodi-0.dtd"
   xmlns:inkscape="http://www.inkscape.org/namespaces/inkscape"
   version="1.1"
   id="Calque_1"
   x="0px"
   y="0px"
   width="39px"
   height="18.8px"
   viewBox="0 0 39 18.8"
   enable-background="new 0 0 39 18.8"
   xml:space="preserve"
   sodipodi:docname="randomSwoop2.svg"
   inkscape:version="0.92.2 (5c3e80d, 2017-08-06)"><metadata
     id="metadata10"><rdf:RDF><cc:Work
         rdf:about=""><dc:format>image/svg+xml</dc:format><dc:type
           rdf:resource="http://purl.org/dc/dcmitype/StillImage" /><dc:title /></cc:Work></rdf:RDF></metadata><defs
     id="defs8" /><sodipodi:namedview
     pagecolor="#ffffff"
     bordercolor="#666666"
     borderopacity="1"
     objecttolerance="10"
     gridtolerance="10"
     guidetolerance="10"
     inkscape:pageopacity="0"
     inkscape:pageshadow="2"
     inkscape:window-width="1280"
     inkscape:window-height="961"
     id="namedview6"
     showgrid="false"
     showguides="false"
     inkscape:zoom="29.435897"
     inkscape:cx="19.991426"
     inkscape:cy="8.733121"
     inkscape:window-x="-8"
     inkscape:window-y="-8"
     inkscape:window-maximized="1"
     inkscape:current-layer="Calque_1" /><path
     style="fill:#333333;stroke:#cccccc;stroke-width:0.03397213"
     d="M 36.563354,18.714483 C 36.380149,18.357291 35.197087,16.132752 34.706951,15.223847 30.921315,8.2037922 27.907455,3.2693892 26.725627,2.1565242 26.221524,1.6818382 25.67002,1.6465812 24.992534,2.0457312 c -0.857953,0.505474 -1.851989,1.6241701 -3.000828,3.3771571 -0.477747,0.7289837 -0.797981,1.2567863 -1.690178,2.7857144 -0.893934,1.5319067 -1.068199,1.7998203 -1.398493,2.1500353 -0.377007,0.399746 -0.771662,0.684649 -1.326172,0.957368 -1.029166,0.506163 -2.101031,0.730081 -3.499129,0.730985 l -0.713414,4.62e-4 -0.662457,-0.427912 C 10.911118,10.462814 8.6041435,9.1483895 6.8076989,8.2612737 4.3217655,7.033676 2.525132,6.4152457 1.2123901,6.3352783 0.79057161,6.3095823 0.82975291,6.3584373 0.79397811,5.8135677 c -0.011654,-0.1775043 -0.028771,-0.3494882 -0.038036,-0.3821864 -0.015315,-0.054047 0.01724,-0.059451 0.35810819,-0.059451 1.9143307,0 5.3238821,1.4017661 9.8479337,4.0487725 0.768843,0.4498474 1.838144,1.1030972 2.36142,1.4426232 l 0.332778,0.215921 h 0.51754 c 1.680174,0 3.136613,-0.485226 3.9653,-1.3210766 0.31767,-0.3204159 0.384983,-0.423838 1.340849,-2.0601305 1.48017,-2.5338206 2.126788,-3.5224156 3.054052,-4.6692517 1.317004,-1.628866 2.623088,-2.40692292 3.689108,-2.19766792 0.841797,0.165241 1.391127,0.68278692 2.638144,2.48549602 1.693303,2.4478714 4.639785,7.5464177 7.69602,13.3170747 0.855075,1.614514 0.923716,1.747725 0.907752,1.761615 -0.0304,0.02645 -0.803237,0.429587 -0.823542,0.429587 -0.01178,0 -0.04691,-0.04968 -0.07805,-0.11041 z"
     id="path3749"
     inkscape:connector-curvature="0" /><path
     style="fill:none;stroke:#000000;stroke-width:1px;stroke-linecap:butt;stroke-linejoin:miter;stroke-opacity:1"
     d="m 0.7598885,13.413359 c 4.5000001,0 8.4125855,-11.8032553 8.4125855,-11.8032553 0,0 -1.3249129,14.9477353 1.392857,15.2534843 2.71777,0.305749 5.367595,-4.212543 6.216898,-4.348432 0.849304,-0.135888 2.038328,4.891986 3.940767,4.484321 1.902439,-0.407666 3.431185,-11.9921608 3.83885,-11.5844952 0.407666,0.4076655 5.945122,13.6567942 7.609756,11.9581882 1.664634,-1.698606 5.589286,-8.7088111 5.589286,-8.7088111"
     id="path3739"
     inkscape:connector-curvature="0" /><path
     style="fill:#1a1a1a;stroke:#cccccc;stroke-width:0.03397213"
     d="M 5.4003979,7.5663422 C 3.7021123,6.805312 2.3505598,6.3974187 1.2172924,6.3038974 1.0653213,6.2913562 0.92267472,6.2697811 0.90030003,6.2559528 0.86549328,6.2344411 0.80248853,5.753062 0.79838677,5.4772986 L 0.79717484,5.39582 1.2642916,5.4161631 C 1.9968845,5.4480677 2.689382,5.5949802 3.7042707,5.9338017 4.4707531,6.1896925 6.2090235,6.8992075 6.3072614,6.9962721 6.3354528,7.0241268 5.9588796,7.7582589 5.9099798,7.7707754 5.8912951,7.7755579 5.6619833,7.683563 5.4003979,7.5663422 Z"
     id="path8"
     inkscape:connector-curvature="0" /><path
     style="fill:#1a1a1a;stroke:#cccccc;stroke-width:0.03397213"
     d="M 7.6085861,8.6329421 C 7.216208,8.4284238 6.8842359,8.2569247 6.8708703,8.2518329 6.8575047,8.2467411 6.9383247,8.0631383 7.0504704,7.8438267 l 0.2039011,-0.3987485 0.5423077,0.2715531 0.5423076,0.271553 v 0.5093818 c 0,0.28016 -0.00382,0.5088971 -0.00849,0.5083046 C 8.3258226,9.0052782 8.0009641,8.8374603 7.6085861,8.6329421 Z"
     id="path10"
     inkscape:connector-curvature="0" /><path
     style="fill:#1a1a1a;stroke:#cccccc;stroke-width:0.03397213"
     d="M 33.628757,13.177026 C 30.603371,7.6892599 28.347472,4.0076717 27.091376,2.5081302 26.667938,2.0026245 26.334549,1.7820487 25.939848,1.7462584 24.99049,1.6601737 23.612287,2.9134098 22.046039,5.2870002 21.562157,6.0203048 21.287999,6.4681451 20.43427,7.9198399 19.533054,9.4522817 19.309266,9.8124811 19.076273,10.10561 c -0.718663,0.904154 -2.017764,1.570539 -3.520613,1.805927 -0.185525,0.02906 -0.742848,0.07026 -1.238497,0.09156 l -0.901179,0.03873 -0.661538,-0.424555 C 11.865175,11.046566 11.02438,10.534539 10.11403,10.00931 L 9.3581506,9.5732042 v -0.503947 c 0,-0.2771707 0.00772,-0.5039469 0.017154,-0.5039469 0.089773,0 2.6820214,1.5308217 3.7461444,2.2122417 l 0.534176,0.342064 0.662456,-0.01872 c 0.738863,-0.02088 1.190414,-0.079 1.760999,-0.226659 1.154367,-0.29874 1.989796,-0.840829 2.511249,-1.6294852 0.09266,-0.140135 0.478856,-0.7822082 0.858223,-1.4268293 1.621114,-2.7545982 2.125177,-3.5296193 3.038067,-4.6711673 1.350987,-1.6893798 2.677351,-2.49806127 3.734213,-2.27674223 0.518367,0.10855192 0.879066,0.32842223 1.343251,0.81880103 1.033649,1.0919797 3.104528,4.359033 5.769252,9.10167 0.877255,1.561326 1.232133,2.210054 1.232133,2.252379 0,0.03653 -0.504656,0.85607 -0.527152,0.85607 -0.0064,0 -0.190667,-0.324858 -0.409559,-0.721908 z"
     id="path12"
     inkscape:connector-curvature="0" /><path
     style="fill:#000000;stroke:#cccccc;stroke-width:0.03397213"
     d="m 36.609154,18.73124 c -0.110589,-0.212923 -0.761999,-1.438721 -1.33638,-2.51475 -0.377692,-0.707557 -0.665838,-1.284785 -0.652903,-1.307927 0.0918,-0.164252 0.509918,-0.805482 0.525305,-0.805622 0.02116,-1.92e-4 0.873936,1.578445 1.732132,3.20649 0.529378,1.004258 0.550387,1.051543 0.488054,1.098434 -0.03583,0.02695 -0.213708,0.124061 -0.395293,0.2158 -0.298286,0.150697 -0.333125,0.161081 -0.360915,0.107575 z"
     id="path14"
     inkscape:connector-curvature="0" /></svg>